<svg width="768" height="960" fill="none" xmlns="http://www.w3.org/2000/svg">
  <path fill="#fff" d="M0 0h768v960H0z"/>
  <path fill="#620093" d="M576 0h192v192H576z"/>
  <path d="M576 96h96c0 53.019-42.981 96-96 96V96Z" fill="#fff"/>
  <path d="M672 0c53.019 0 96 42.98 96 96h-96V0Z" fill="#5D3FD3"/>
  <path fill="#fff" d="M0 768h192v192H0z"/>
  <path d="M0 864h96c0 53.019-42.98 96-96 96v-96Z" fill="#800080"/>
  <path d="M96 768v96c-53.02 0-96-42.981-96-96h96Z" fill="#5D3FD3"/>
  <path d="M96 864c0-53.019 42.981-96 96-96v96H96Z" fill="#800080"/>
  <path d="M96 864c53.019 0 96 42.981 96 96H96v-96Z" fill="#620093"/>
  <path fill="#3C005A" d="M576 192h192v192H576z"/>
  <path d="M672 288h96c0 53.019-42.981 96-96 96v-96Z" fill="#800080"/>
  <path d="M672 288c-53.019 0-96 42.981-96 96h96v-96Z" fill="#5D3FD3"/>
  <path fill="#fff" d="M192 192h192v192H192z"/>
  <path d="M384 288h-96c0 53.019 42.981 96 96 96v-96Z" fill="#800080"/>
  <path d="M288 192c53.019 0 96 42.981 96 96h-96v-96Z" fill="#5D3FD3"/>
  <path fill="#fff" d="M384 0h192v192H384z"/>
  <path d="M480 96h96l-96 96V96Zm0-96v96h-96l96-96Z" fill="#800080"/>
  <path fill="#3C005A" d="M384 384h192v192H384z"/>
  <path d="M480 480v-96l96 96h-96Z" fill="#fff"/>
  <path d="M384 480h96v96l-96-96Z" fill="#800080"/>
  <path fill="#620093" d="M384 192h192v192H384z"/>
  <path d="M480 384c-53.019 0-96-42.981-96-96s42.981-96 96-96v192Z" fill="#5D3FD3"/>
  <circle cx="480" cy="288" r="48" fill="#fff"/>
  <path fill="#620093" d="M192 768h192v192H192z"/>
  <path d="M288 960c-53.019 0-96-42.981-96-96s42.981-96 96-96v192Z" fill="#5D3FD3"/>
  <path d="M384 960c-53.019 0-96-42.981-96-96s42.981-96 96-96v192Z" fill="#fff"/>
  <circle cx="288" cy="864" r="48" fill="#800080"/>
  <path fill="#3C005A" d="M0 576h192v192H0z"/>
  <path d="M0 672c0-53.019 42.98-96 96-96 53.019 0 96 42.981 96 96H0Z" fill="#800080"/>
  <circle cx="96" cy="720" r="48" fill="#fff"/>
  <path fill="#fff" d="M192 576h192v192H192z"/>
  <path d="M192 672c0-53.019 42.981-96 96-96s96 42.981 96 96H192Z" fill="#800080"/>
  <path d="M288 768c-53.019 0-96-42.981-96-96s42.981-96 96-96v192Z" fill="#5D3FD3"/>
  <circle cx="336" cy="720" r="48" fill="#620093"/>
  <path fill="#fff" d="M0 384h192v192H0z"/>
  <path d="M192 576c-53.019 0-96-42.981-96-96s42.981-96 96-96v192Z" fill="#5D3FD3"/>
  <circle cx="48" cy="480" r="48" fill="#620093"/>
  <path fill="#620093" d="M192 384h192v192H192z"/>
  <path d="M192 576c53.019 0 96-42.981 96-96s-42.981-96-96-96v192Z" fill="#5D3FD3"/>
  <path d="M384 384v192l-96-96 96-96ZM0 0h192v192H0z" fill="#fff"/>
  <path fill="#800080" d="M96 96h96v96H96z"/>
  <path fill="#3C005A" d="M0 0h96v96H0zm384 576h192v192H384z"/>
  <path fill="#5D3FD3" d="M384 576h96v96h-96z"/>
  <path fill="#fff" d="M480 672h96v96h-96z"/>
  <path fill="#3C005A" d="M0 192h192v192H0z"/>
  <circle cx="96" cy="288" r="48" fill="#fff"/>
  <path d="M192 384H0l96-96 96 96Z" fill="#5D3FD3"/>
  <path fill="#fff" d="M576 768h192v192H576z"/>
  <circle cx="720" cy="912" r="48" fill="#800080"/>
  <circle cx="624" cy="912" r="48" fill="#800080"/>
  <path d="M576 768h192l-96 96-96-96Z" fill="#5D3FD3"/>
  <path fill="#fff" d="M576 576h192v192H576z"/>
  <circle cx="672" cy="672" r="48" fill="#800080"/>
  <path d="M768 768H576l96-96 96 96Z" fill="#5D3FD3"/>
  <path d="M768 672H576l96-96 96 96ZM192 0h192v192H192z" fill="#620093"/>
  <path d="M384 0v192H192L384 0Z" fill="#5D3FD3"/>
  <circle cx="288" cy="96" r="48" fill="#fff"/>
  <path fill="#fff" d="M576 384h192v192H576z"/>
  <path d="M576 384h192v192L576 384Z" fill="#800080"/>
  <circle cx="672" cy="480" r="48" fill="#5D3FD3"/>
  <path fill="#5D3FD3" d="M384 768h192v192H384z"/>
  <path d="M576 960H384V768l192 192Z" fill="#620093"/>
  <circle cx="480" cy="864" r="48" fill="#fff"/>
</svg>
