<svg width="751" height="63" fill="none" xmlns="http://www.w3.org/2000/svg">
  <path fill="#5D3FD3" d="M.5 0H63v62.5H.5z"/>
  <path d="M.5 31.25h31.25C31.75 48.509 17.759 62.5.5 62.5V31.25Z" fill="#fff"/>
  <path d="M31.81 0c17.26 0 31.25 13.991 31.25 31.25H31.81V0Z" fill="#800080"/>
  <path fill="#fff" d="M63 0h62.5v62.5H63z"/>
  <path d="M125.561 31.25h-31.25c0 17.259 13.991 31.25 31.25 31.25V31.25Z" fill="#620093"/>
  <path d="M94.31 0c17.26 0 31.251 13.991 31.251 31.25h-31.25V0Z" fill="#800080"/>
  <path fill="#3C005A" d="M125.5 0H188v62.5h-62.5z"/>
  <circle cx="156.689" cy="31.25" fill="#fff" r="15.625"/>
  <path d="M188 62.5h-62.5l31.25-31.25L188 62.5Z" fill="#800080"/>
  <path fill="#fff" d="M188 0h62.5v62.5H188z"/>
  <path fill="#620093" d="M219.311 31.25h31.25V62.5h-31.25z"/>
  <path fill="#3C005A" d="M188 0h31.25v31.25H188zm62.5 0H313v62.5h-62.5z"/>
  <path d="M313 0v62.5h-62.5L313 0Z" fill="#800080"/>
  <circle cx="281.689" cy="31.25" r="15.625" fill="#fff"/>
  <path fill="#fff" d="M313 0h62.5v62.5H313z"/>
  <path d="M344.311 31.25h31.25l-31.25 31.25V31.25ZM344.25 0v31.25H313L344.25 0Z" fill="#620093"/>
  <path fill="#fff" d="M375.5 0H438v62.5h-62.5z"/>
  <path d="M438 62.5c-17.259 0-31.25-13.991-31.25-31.25S420.741 0 438 0v62.5Z" fill="#800080"/>
  <circle cx="391.125" cy="31.25" r="15.625" fill="#5D3FD3"/>
  <path fill="#3C005A" d="M438 0h62.5v62.5H438z"/>
  <path d="M469.25 31.25V0l31.25 31.25h-31.25Z" fill="#fff"/>
  <path d="M438 31.25h31.25V62.5L438 31.25Z" fill="#620093"/>
  <path fill="#5D3FD3" d="M500.5 0H563v62.5h-62.5z"/>
  <path d="M500.5 62.5c17.259 0 31.25-13.991 31.25-31.25S517.759 0 500.5 0v62.5Z" fill="#800080"/>
  <path d="M563 0v62.5l-31.25-31.25L563 0Zm0 0h62.5v62.5H563z" fill="#fff"/>
  <path d="M563 0h62.5v62.5L563 0Z" fill="#620093"/>
  <circle cx="594.25" cy="31.25" r="15.625" fill="#800080"/>
  <path fill="#5D3FD3" d="M625.5 0H688v62.5h-62.5z"/>
  <path d="M656.75 62.5c-17.259 0-31.25-13.991-31.25-31.25S639.491 0 656.75 0v62.5Z" fill="#800080"/>
  <circle cx="656.75" cy="31.25" r="15.625" fill="#fff"/>
  <path fill="#3C005A" d="M688 0h62.5v62.5H688z"/>
  <path d="M719.25 31.25h31.25c0 17.259-13.991 31.25-31.25 31.25V31.25Z" fill="#620093"/>
  <path d="M719.25 31.25C701.991 31.25 688 45.241 688 62.5h31.25V31.25Z" fill="#800080"/>
</svg>
