<svg width="60" height="60" viewBox="0 0 60 60" fill="none" xmlns="http://www.w3.org/2000/svg">
  <g filter="url(#filter0_d_912_22451)">
    <rect x="2" y="1" width="56" height="56" rx="12" fill="white"/>
    <rect x="2.5" y="1.5" width="55" height="55" rx="11.5" stroke="#EAECF0"/>
    <path
      d="M39.3333 39.5C39.3333 37.8718 39.3333 37.0578 39.1324 36.3953C38.6799 34.9039 37.5128 33.7367 36.0213 33.2843C35.3589 33.0833 34.5448 33.0833 32.9167 33.0833H27.0833C25.4552 33.0833 24.6411 33.0833 23.9787 33.2843C22.4872 33.7367 21.32 34.9039 20.8676 36.3953C20.6667 37.0578 20.6667 37.8718 20.6667 39.5M35.25 23.75C35.25 26.6495 32.8995 29 30 29C27.1005 29 24.75 26.6495 24.75 23.75C24.75 20.8505 27.1005 18.5 30 18.5C32.8995 18.5 35.25 20.8505 35.25 23.75Z"
      stroke="#344054" stroke-width="2" stroke-linecap="round" stroke-linejoin="round"/>
  </g>
  <defs>
    <filter id="filter0_d_912_22451" x="0" y="0" width="60" height="60" filterUnits="userSpaceOnUse"
            color-interpolation-filters="sRGB">
      <feFlood flood-opacity="0" result="BackgroundImageFix"/>
      <feColorMatrix in="SourceAlpha" type="matrix" values="0 0 0 0 0 0 0 0 0 0 0 0 0 0 0 0 0 0 127 0"
                     result="hardAlpha"/>
      <feOffset dy="1"/>
      <feGaussianBlur stdDeviation="1"/>
      <feColorMatrix type="matrix" values="0 0 0 0 0.0627451 0 0 0 0 0.0941176 0 0 0 0 0.156863 0 0 0 0.05 0"/>
      <feBlend mode="normal" in2="BackgroundImageFix" result="effect1_dropShadow_912_22451"/>
      <feBlend mode="normal" in="SourceGraphic" in2="effect1_dropShadow_912_22451" result="shape"/>
    </filter>
  </defs>
</svg>
