<svg width="28" height="28" viewBox="0 0 28 28" fill="none" xmlns="http://www.w3.org/2000/svg">
<path d="M23.3334 24.5C23.3334 22.8718 23.3334 22.0578 23.1324 21.3953C22.68 19.9039 21.5128 18.7367 20.0214 18.2843C19.3589 18.0833 18.5448 18.0833 16.9167 18.0833H11.0834C9.4552 18.0833 8.64112 18.0833 7.97869 18.2843C6.48722 18.7367 5.32007 19.9039 4.86763 21.3953C4.66669 22.0578 4.66669 22.8718 4.66669 24.5M19.25 8.75C19.25 11.6495 16.8995 14 14 14C11.1005 14 8.75002 11.6495 8.75002 8.75C8.75002 5.8505 11.1005 3.5 14 3.5C16.8995 3.5 19.25 5.8505 19.25 8.75Z" stroke="#344054" stroke-width="2" stroke-linecap="round" stroke-linejoin="round"/>
</svg>
